HIERARCHY
ROOT Hips
{
  OFFSET 0 0 0
  CHANNELS 6 Xposition Yposition Zposition Zrotation Yrotation Xrotation
  JOINT LeftThigh
  {
    OFFSET 8.409438 0 -5.917753
    CHANNELS 3 Zrotation Yrotation Xrotation
    JOINT LeftLeg
    {
      OFFSET 0 0 -42.358652
      CHANNELS 3 Zrotation Yrotation Xrotation
      JOINT LeftFoot
      {
        OFFSET 0 0 -39.357303
        CHANNELS 3 Zrotation Yrotation Xrotation
      }
    }
  }
  JOINT RightThigh
  {
    OFFSET -8.409438 0 -5.917753
    CHANNELS 3 Zrotation Yrotation Xrotation
    JOINT RightLeg
    {
      OFFSET 0 0 -42.358652
      CHANNELS 3 Zrotation Yrotation Xrotation
      JOINT RightFoot
      {
        OFFSET 0 0 -39.357303
        CHANNELS 3 Zrotation Yrotation Xrotation
      }
    }
  }
  JOINT SpineLow
  {
    OFFSET 0 0 4.719101
    CHANNELS 3 Zrotation Yrotation Xrotation
    JOINT SpineMid
    {
      OFFSET 0 0 12.899191
      CHANNELS 3 Zrotation Yrotation Xrotation
      JOINT Chest
      {
        OFFSET 0 0 12.899191
        CHANNELS 3 Zrotation Yrotation Xrotation
        JOINT LeftShoulder
        {
          OFFSET 7.550562 1.41573 9.438202
          CHANNELS 3 Zrotation Yrotation Xrotation
          JOINT LeftArm
          {
            OFFSET 9.155056 0 4.247191
            CHANNELS 3 Zrotation Yrotation Xrotation
            JOINT LeftForearm
            {
              OFFSET 0 0 25.771955
              CHANNELS 3 Zrotation Yrotation Xrotation
              JOINT LeftHand
              {
                OFFSET 0 0 25.197169
                CHANNELS 3 Zrotation Yrotation Xrotation
              }
            }
          }
        }
        JOINT RightShoulder
        {
          OFFSET -7.550562 1.41573 9.438202
          CHANNELS 3 Zrotation Yrotation Xrotation
          JOINT RightArm
          {
            OFFSET -9.155056 0 4.247191
            CHANNELS 3 Zrotation Yrotation Xrotation
            JOINT RightForearm
            {
              OFFSET 0 0 -25.771955
              CHANNELS 3 Zrotation Yrotation Xrotation
              JOINT RightHand
              {
                OFFSET 0 0 -25.197169
                CHANNELS 3 Zrotation Yrotation Xrotation
              }
            }
          }
        }
        JOINT Neck
        {
          OFFSET 0 0 15.101124
          CHANNELS 3 Zrotation Yrotation Xrotation
          JOINT Head
          {
            OFFSET 0 0 11.325843
            CHANNELS 3 Zrotation Yrotation Xrotation
            End Site
            {
              OFFSET 0 0 14.157303
            }
          }
        }
      }
    }
  }
}
MOTION
Frames: 13
Frame Time: 0.0
0.0  93.25843  0.0  -2.912314  -38.606345  -92.741334  -2.716455  -19.309379  -3.650432  29.428921  -3.223687  25.516263  11.802292  2.950027  8.354563  -5.893112  0.039066  -20.559039  -7.755393  13.235872  13.823493  20.871727  1.521571  0.428199  -1.017789  -2.294577  1.006354  -2.885067  -6.226968  2.854808  -2.885067  -6.226968  2.854808  -15.656965  35.056754  -7.059761  -174.61857  63.554808  -142.883793  12.073174  -20.482997  66.139204  75.344399  4.582337  -4.113721  -13.337349  2.871321  16.064652  51.057419  22.40982  25.407938  -30.203062  -9.047025  -119.59232  75.831593  3.446612  -36.768905  12.681428  5.230292  1.420572  9.492331  3.954212  0.956352  
0.0  93.25843  0.0  -3.15273  -39.010984  -92.661057  -1.729767  -19.872482  -4.755191  29.050307  -3.300822  27.726568  11.382998  3.25962  8.247833  -5.3131  -0.342445  -21.180174  -7.414411  13.74797  15.387112  20.791703  1.872512  0.312202  -0.974607  -2.308829  1.025362  -2.769234  -6.267  2.90351  -2.769234  -6.267  2.90351  -15.600258  34.976578  -6.918249  -174.689394  63.312528  -142.835129  12.105628  -20.471657  65.990179  75.231146  4.230237  -3.947685  -13.193569  3.056287  16.339194  51.294207  22.577499  25.186116  -30.407395  -8.858238  -119.650163  75.828479  3.741878  -36.579539  12.77122  5.205549  1.374834  9.560136  3.934926  0.921817  
0.0  93.25843  0.0  -3.420142  -39.213055  -92.66481  0.66678  -20.377091  -5.085179  27.100953  -2.649643  28.833882  11.06095  3.557763  8.173251  -4.990666  -0.851455  -21.536909  -6.934688  14.280889  16.815569  20.824859  2.282702  0.171834  -0.95732  -2.325487  1.058405  -2.72584  -6.311891  2.993211  -2.725841  -6.311891  2.993211  -15.523962  34.894136  -6.79385  -174.653828  62.986271  -142.716846  12.17732  -20.537236  65.876967  75.245019  3.946117  -3.8846  -13.079422  3.198088  16.542118  51.566097  22.815198  24.996877  -30.549533  -8.754178  -119.739307  75.79123  3.966493  -36.409584  12.851483  5.193316  1.323039  9.620788  3.924863  0.88256  
0.0  93.25843  0.0  -3.649074  -39.237147  -92.796959  1.748561  -20.993868  -6.097069  26.0527  -2.410853  30.882892  10.871426  3.818924  8.108603  -5.373688  -1.444243  -21.651774  -6.125621  14.760001  18.098923  20.729279  2.747885  0.014692  -0.961703  -2.33995  1.103336  -2.742903  -6.349287  3.117454  -2.742903  -6.349287  3.117454  -15.48037  34.836866  -6.729388  -174.58182  62.573802  -142.634111  12.256226  -20.699013  65.842892  75.32579  3.75904  -3.989216  -12.965929  3.243694  16.658821  51.848045  23.146335  24.901459  -30.542094  -8.788617  -119.840845  75.670654  4.100976  -36.30236  12.930962  5.210421  1.28064  9.680633  3.936997  0.849724  
0.0  93.25843  0.0  -3.90228  -39.14231  -93.091233  2.806501  -21.618502  -6.862852  24.8867  -2.072215  32.756815  11.03786  4.075435  8.279414  -6.167756  -1.964191  -21.644896  -5.027457  15.191025  19.525594  20.732364  3.353549  -0.198274  -0.982784  -2.361417  1.173344  -2.808591  -6.403865  3.312396  -2.808591  -6.403865  3.312396  -15.133351  34.999042  -6.599553  -174.825157  62.258544  -142.686175  12.256579  -20.885606  65.866248  75.426012  3.616275  -4.260123  -12.742718  3.214063  16.676407  52.03591  23.538486  24.866632  -31.754802  -9.879278  -120.364875  75.428249  3.095252  -37.729659  12.928287  5.213962  1.202627  9.679273  3.937996  0.79117  
0.0  93.25843  0.0  -4.159795  -38.688783  -93.300156  3.595116  -22.116628  -7.617979  23.790933  -1.826925  34.38902  10.833919  4.308498  8.254509  -7.200154  -2.434906  -21.598108  -4.347295  15.741017  20.827936  20.888996  3.884769  -0.399863  -1.047655  -2.39283  1.205543  -2.991298  -6.484859  3.408555  -2.991298  -6.484858  3.408554  -14.998663  35.251078  -6.518829  -174.739938  61.902317  -142.675412  12.171385  -21.040904  65.979118  75.478257  3.501854  -4.730238  -12.43379  3.073612  16.728657  52.212888  24.049778  24.959187  -31.278671  -10.213112  -120.520222  75.2055  3.064174  -37.544787  13.0053  5.261741  1.244041  9.73642  3.974907  0.820535  
0.0  93.25843  0.0  -4.367628  -37.91405  -93.491517  4.173289  -22.446992  -8.316863  22.770979  -1.638451  35.835555  10.47629  4.500848  8.215763  -8.233218  -2.800927  -21.385592  -3.9786  16.36989  21.889084  21.144368  4.249354  -0.608227  -1.14424  -2.424213  1.229166  -3.260179  -6.564286  3.484528  -3.260179  -6.564286  3.484529  -14.828659  35.646201  -6.523841  -174.636484  61.563516  -142.624524  11.48663  -20.950656  64.199792  75.820965  1.35459  -4.458282  -12.004113  2.865562  16.652942  52.372989  24.593391  25.070592  -30.611206  -10.68253  -120.689064  75.236072  3.077809  -37.140632  13.023175  5.307953  1.268153  9.749392  4.010142  0.837457  
0.0  93.25843  0.0  -4.493467  -36.812171  -93.731314  4.45109  -22.599154  -8.934702  21.559618  -1.381337  37.014726  10.202211  4.691209  8.231299  -9.013694  -2.932558  -21.099146  -3.995812  16.940503  22.808016  21.427839  4.513182  -0.753918  -1.238117  -2.434964  1.245429  -3.519738  -6.587684  3.539051  -3.519738  -6.587684  3.539051  -14.817076  35.998973  -6.552666  -174.428426  61.172754  -142.426295  11.130341  -20.804978  64.358247  75.671684  1.034489  -5.164668  -11.686018  2.490116  16.695466  52.527187  25.297444  25.029862  -29.912609  -11.199775  -120.843805  75.559209  3.213194  -36.575749  12.894437  5.304065  1.296416  9.652683  4.007511  0.859848  
0.0  93.25843  0.0  -4.626119  -35.441601  -94.009805  4.319638  -22.610837  -9.459754  20.486682  -1.205329  38.192647  9.911643  4.851427  8.15407  -9.801975  -3.041794  -20.707165  -4.11045  17.403168  23.66408  21.278582  4.730641  -0.830203  -1.317659  -2.439845  1.269053  -3.740393  -6.595271  3.612011  -3.740393  -6.595271  3.612011  -14.847158  36.305235  -6.508334  -173.968137  60.637851  -141.826982  10.673021  -20.340525  64.509751  75.441096  0.544471  -5.966889  -11.829794  1.929979  16.411639  53.140888  25.964118  25.194744  -29.235703  -11.737203  -120.931172  76.167247  3.490498  -35.891858  12.591472  5.269849  1.292064  9.425817  3.981006  0.859922  
0.0  93.25843  0.0  -4.799324  -33.855151  -94.308831  3.801759  -22.638366  -9.953401  19.334829  -0.867758  39.230408  9.905144  4.947909  8.139693  -10.840841  -3.248022  -20.053079  -3.910488  17.791646  24.322316  21.253295  5.15419  -0.930348  -1.400305  -2.450205  1.307688  -3.971411  -6.616546  3.726808  -3.971411  -6.616546  3.726808  -14.678369  36.575676  -6.363519  -173.220613  59.838082  -140.795909  10.144408  -19.576459  64.771592  75.314577  0.160976  -6.765869  -11.577117  1.397313  16.342293  53.255198  26.861775  24.946842  -28.672898  -12.230874  -120.946731  76.7912  3.861451  -35.144877  12.232219  5.256906  1.233725  9.157124  3.969253  0.819528  
0.0  93.25843  0.0  -5.033382  -31.997737  -94.557877  3.14498  -22.708495  -10.491216  18.079431  -0.377968  40.140252  10.180013  5.008961  8.2431  -12.145845  -3.454966  -19.312907  -3.525138  18.070152  24.938615  21.510018  5.570212  -0.999545  -1.464316  -2.485118  1.328444  -4.15123  -6.706846  3.792548  -4.15123  -6.706845  3.792548  -14.546126  36.928002  -6.119884  -172.227075  58.643108  -139.584901  9.692882  -18.673533  65.272612  75.497802  0.132017  -7.528213  -11.295608  0.882846  16.224391  53.103919  27.863352  24.723117  -28.274285  -12.660067  -120.920989  77.061316  4.263412  -34.500277  11.722934  5.30139  1.175877  8.775731  4.000338  0.779647  
0.0  93.25843  0.0  -5.296519  -29.857322  -94.817625  2.481382  -22.753145  -11.004965  16.701947  0.140567  40.844637  10.306411  4.981566  8.207419  -13.672579  -3.547225  -18.538653  -3.231813  18.323721  25.441445  21.448714  5.917245  -1.126507  -1.497502  -2.533077  1.324172  -4.244951  -6.836139  3.787673  -4.244951  -6.836139  3.787673  -14.444611  37.250643  -5.732804  -171.450374  56.9573  -138.709392  9.404946  -17.874524  66.002823  75.974338  0.300865  -8.51257  -11.200257  0.559114  16.176516  52.742252  28.935979  24.38392  -28.019455  -12.961559  -120.92931  76.599855  4.516755  -34.150852  11.001461  5.359695  1.133449  8.235136  4.041722  0.753005  
0.0  93.25843  0.0  -5.576246  -27.504201  -95.137016  1.875702  -22.806278  -11.388987  15.274219  0.608037  41.26563  10.430237  4.901484  8.216254  -15.297848  -3.509958  -17.566546  -3.166746  18.559271  25.724377  21.600496  6.314273  -1.235788  -1.520135  -2.582159  1.313159  -4.309124  -6.969574  3.763436  -4.309124  -6.969575  3.763436  -14.129003  37.562628  -5.086116  -170.903719  54.964389  -138.058065  9.269614  -17.236298  66.916931  76.768978  0.353123  -9.514295  -11.001226  0.314405  16.167782  52.199459  30.128425  24.009917  -27.889876  -13.13266  -121.031317  75.472545  4.613846  -34.02593  10.172378  5.423586  1.08332  7.613966  4.087058  0.721591  
